# xmcd CD database file
#
# Track frame offsets:
#	150
#	25895
#	57227
#	72208
#	107380
#	118425
#	144177
#	153277
#	177260
#	207495
#
# Disc length: 3047 seconds
#
# Revision: 0
# Processed by: cddbd v1.5.2PL0 Copyright (c) Steve Scherf et al.
# Submitted via: CDex 1.70beta3
#
DISCID=880be50a
DTITLE=Team Hegdal - Vol 1
DYEAR=2009
DGENRE=Jazz
TTITLE0=Cape Town Ship
TTITLE1=Mingu
TTITLE2=Java
TTITLE3=Indie Jazz
TTITLE4=Arabian Euroline
TTITLE5=African Rhapsody
TTITLE6=To
TTITLE7=When Sun Ra Met Messiaen
TTITLE8=Turtlehead
TTITLE9=Rosenmos
EXTD=YEAR: 2009
EXTT0=
EXTT1=
EXTT2=
EXTT3=
EXTT4=
EXTT5=
EXTT6=
EXTT7=
EXTT8=
EXTT9=
PLAYORDER=
